# xmcd
#
# Track frame offsets:
#	150
#	16077
#	33087
#	46340
#	61360
#	73802
#	89970
#	100062
#	121100
#	132487
#	151815
#	163950
#
# Disc length: 2373 seconds
#
# Revision: 2
# Processed by: cddbd v1.5.1PL0 Copyright (c) Steve Scherf et al.
# Submitted via: audiograbber 1.83.01
#
DISCID=9e09430c
DTITLE=Various Artist - Hot Stuff
DYEAR=1994
DGENRE=Country
TTITLE0=Kathy Mattea - Walking Away a Winner
TTITLE1=Kathy Mattea - Nobody's gonna rain on Our Parade
TTITLE2=John and Audrey Wiggins - Falling Out of Love
TTITLE3=John and Audrey Wiggins - Has Anybody Seen Amy?
TTITLE4=Davis Daniel - Shame on Me
TTITLE5=Davis Daniel - I Miss Her Missing Me
TTITLE6=Sammy Kershaw - Better Call a Preacher
TTITLE7=Sammy Kershaw - Southbound
TTITLE8=Billy Ray Cyrus - Ain't Your Dog No More
TTITLE9=Billy Ray Cyrus - Talk Some
TTITLE10=Twister Alley - Young Love
TTITLE11=Twister Alley - Twister Alley
EXTD=
EXTT0=Kathy Mattea
EXTT1=Kathy Mattea
EXTT2=John and Audrey Wiggins
EXTT3=John and Audrey Wiggins
EXTT4=Davis Daniel
EXTT5=Davis Daniel
EXTT6=Sammy Kershaw
EXTT7=Sammy Kershaw
EXTT8=Billy Ray Cyrus
EXTT9=Billy Ray Cyrus
EXTT10=Twister Alley
EXTT11=Twister Alley
PLAYORDER=
